<?xml version="1.0" encoding="UTF-8"?>
<!DOCTYPE svg PUBLIC "-//W3C//DTD SVG 1.1//EN" "http://www.w3.org/Graphics/SVG/1.1/DTD/svg11.dtd">
<!-- Creator: CorelDRAW 2021 (64-Bit) -->
<svg xmlns="http://www.w3.org/2000/svg" xml:space="preserve" width="228.222mm" height="66.3258mm" version="1.1" style="shape-rendering:geometricPrecision; text-rendering:geometricPrecision; image-rendering:optimizeQuality; fill-rule:evenodd; clip-rule:evenodd"
viewBox="0 0 22822.2 6632.58"
 xmlns:xlink="http://www.w3.org/1999/xlink"
 xmlns:xodm="http://www.corel.com/coreldraw/odm/2003">
 <defs>
  <style type="text/css">
   <![CDATA[
    .fil0 {fill:#D90000;fill-rule:nonzero}
    .fil1 {fill:white;fill-rule:nonzero}
   ]]>
  </style>
 </defs>
 <g id="Слой_x0020_1">
  <metadata id="CorelCorpID_0Corel-Layer"/>
  <path class="fil0" d="M21534.69 7.11c481.09,0 721.72,0 900.93,103.4 117.32,67.8 214.79,165.27 282.6,282.66 103.45,179.15 103.45,419.78 103.45,900.86 0,481.09 0,721.72 -103.45,900.93 -67.81,117.32 -165.28,214.85 -282.6,282.6 -179.21,103.45 -419.84,103.45 -900.93,103.45l-2682.86 0c-481.26,0 -721.71,0 -900.92,-103.45 -117.33,-67.75 -214.8,-165.28 -282.6,-282.6 -103.4,-179.21 -103.4,-419.84 -103.4,-900.93 0,-481.08 0,-721.71 103.4,-900.86 67.8,-117.39 165.27,-214.86 282.6,-282.66 179.21,-103.4 419.66,-103.4 900.92,-103.4l2682.86 0z"/>
  <path class="fil1" d="M19688.2 1185.65l599.63 0c-54.45,-110.59 -168.53,-186.99 -299.78,-186.99 -131.32,0 -245.39,76.4 -299.85,186.99zm-13636.12 1790.47c-720.44,0 -1306.37,586.1 -1306.37,1306.6 0,720.26 585.93,1306.42 1306.37,1306.42 720.49,0 1306.42,-586.16 1306.42,-1306.42 0,-720.5 -585.93,-1306.6 -1306.42,-1306.6zm6156.23 3610.66l-2473.76 0c-364.74,0 -690.77,-217.7 -830.45,-554.81 -139.44,-337.12 -63.1,-721.48 194.95,-979.53l2042.07 -2042.25 -2179.89 0 0 -1050.64 2546.49 0c364.92,0 690.78,217.93 830.45,554.99 139.68,336.94 63.05,721.31 -194.77,979.35l-2042.24 2042.25 2107.15 0 0 1050.64zm-11158.2 -2.15l-1050.64 0 0 -2269.99c0,-1297.02 1055.12,-2352.13 2352.13,-2352.13l993.06 0 0 1050.64 -993.06 0c-717.65,0 -1301.49,583.84 -1301.49,1301.49l0 2269.99zm14132.54 -995.61c-720.49,0 -1306.42,-586.1 -1306.42,-1306.36 0,-720.5 585.93,-1306.6 1306.42,-1306.6 720.5,0 1306.43,586.1 1306.43,1306.6 0,720.26 -585.93,1306.36 -1306.43,1306.36zm0 -3663.6c-1299.63,0 -2357.01,1057.37 -2357.01,2357.24 0,1299.63 1057.38,2357.01 2357.01,2357.01 482.94,0 932.27,-146.41 1306.43,-396.68l0 337.7 1050.81 0 0 -2298.03c0,-1299.87 -1057.61,-2357.24 -2357.24,-2357.24zm-9130.57 4714.31c-1299.81,0 -2357.19,-1057.38 -2357.19,-2357.01 0,-1299.87 1057.38,-2357.25 2357.19,-2357.25 1299.69,0 2357.06,1057.38 2357.06,2357.25 0,1299.63 -1057.37,2357.01 -2357.06,2357.01zm12626.17 -4698.93l-294.27 0 0 -581.23c0,-347.97 283.01,-630.97 630.98,-630.97l262.92 0 0 294.27 -262.92 0c-185.77,0 -336.71,151.17 -336.71,336.7l0 581.23zm3029.91 -607.93l-0.06 0 0 -4.41c-2.32,-182.12 -151.29,-329.74 -333.98,-329.74 -184.32,0 -334.21,149.95 -334.21,334.03 0,184.32 149.89,334.04 334.21,334.04 184.08,0 333.98,-149.66 334.04,-333.92zm-0.06 -532.11l0 -441.27 294.33 0 0 973.26 0 0.12c-0.06,346.46 -281.85,628.19 -628.31,628.19 -346.52,0 -628.54,-281.79 -628.54,-628.31 0,-346.52 282.02,-628.3 628.54,-628.3 122.66,0 237.2,35.29 333.98,96.31zm-1720.05 1160.42c-346.52,0 -628.37,-281.97 -628.37,-628.31 0,-346.52 281.85,-628.54 628.37,-628.54 346.51,0 628.3,282.02 628.3,628.54l0 147.05 -928.15 0c54.46,110.59 168.53,186.99 299.85,186.99 94.16,0 181.41,-38.32 245.5,-107.52l216.07 199.65c-118.54,128.41 -286.72,202.14 -461.57,202.14z"/>
 </g>
</svg>
